<svg width="16" height="16" viewBox="0 0 16 16" fill="none" xmlns="http://www.w3.org/2000/svg">
<circle cx="8" cy="8" r="8" fill="#3090E9"/>
<path d="M7.97945 2.82579C8.08257 2.61601 8.25234 2.61601 8.35545 2.82579L9.66212 5.4729C9.76612 5.68268 10.0399 5.88179 10.2719 5.91557L13.1928 6.34135C13.4248 6.37512 13.4772 6.5369 13.3092 6.69957L11.1955 8.76001C11.0275 8.92357 10.9235 9.24623 10.9626 9.47646L11.4612 12.3858C11.5012 12.6169 11.3635 12.7165 11.1572 12.608L8.5439 11.2329C8.33679 11.1245 7.99812 11.1245 7.79012 11.2329L5.17768 12.6062C4.97057 12.7156 4.83368 12.616 4.87279 12.3849L5.37234 9.47557C5.41145 9.24446 5.30657 8.92268 5.13945 8.75912L3.02479 6.69868C2.85768 6.53512 2.90923 6.37423 3.14123 6.34046L6.06301 5.91468C6.29412 5.8809 6.56968 5.68179 6.67279 5.47201L7.97945 2.82579Z" fill="white"/>
</svg>
