<svg width="16" height="16" viewBox="0 0 16 16" fill="none" xmlns="http://www.w3.org/2000/svg">
<circle cx="8" cy="8" r="8" fill="#FF4988"/>
<circle cx="10.4009" cy="8.93333" r="0.249495" fill="white"/>
<circle cx="8.40526" cy="6.93846" r="0.249495" fill="white"/>
<path fill-rule="evenodd" clip-rule="evenodd" d="M12.3968 4.44458H5.16145V5.19306C5.16145 5.33086 5.04975 5.44256 4.91196 5.44256C4.77417 5.44256 4.66246 5.33086 4.66246 5.19306V4.44458H3.91398C3.22532 4.4453 2.66723 5.00339 2.6665 5.69205V10.183C2.66723 10.8716 3.22532 11.4297 3.91398 11.4304H4.66246V10.682C4.66246 10.5442 4.77417 10.4325 4.91196 10.4325C5.04975 10.4325 5.16145 10.5442 5.16145 10.682V11.4304H12.3968C13.0855 11.4297 13.6436 10.8716 13.6443 10.183V5.69205C13.6436 5.00339 13.0855 4.4453 12.3968 4.44458ZM5.16168 9.68384C5.16168 9.82163 5.04998 9.93333 4.91219 9.93333C4.7744 9.93333 4.6627 9.82163 4.6627 9.68384V9.18485C4.6627 9.04705 4.7744 8.93535 4.91219 8.93535C5.04998 8.93535 5.16168 9.04705 5.16168 9.18485V9.68384ZM4.91219 8.43475C5.04998 8.43475 5.16168 8.32304 5.16168 8.18525V7.68626C5.16168 7.54847 5.04998 7.43677 4.91219 7.43677C4.7744 7.43677 4.6627 7.54847 4.6627 7.68626V8.18525C4.6627 8.32304 4.7744 8.43475 4.91219 8.43475ZM5.16168 6.68955C5.16168 6.82734 5.04998 6.93904 4.91219 6.93904C4.7744 6.93904 4.6627 6.82734 4.6627 6.68955V6.19056C4.6627 6.05277 4.7744 5.94106 4.91219 5.94106C5.04998 5.94106 5.16168 6.05277 5.16168 6.19056V6.68955ZM9.15322 6.94248C9.15322 6.5291 8.81811 6.19399 8.40473 6.19399C7.99155 6.19445 7.6567 6.52929 7.65625 6.94248C7.65625 7.35586 7.99136 7.69096 8.40473 7.69096C8.81811 7.69096 9.15322 7.35586 9.15322 6.94248ZM10.4008 9.68232C9.98745 9.68232 9.65234 9.34721 9.65234 8.93384C9.65234 8.52046 9.98745 8.18535 10.4008 8.18535C10.8142 8.18535 11.1493 8.52046 11.1493 8.93384C11.1489 9.34702 10.814 9.68187 10.4008 9.68232ZM8.08245 9.61241L11.0764 6.61847C11.1408 6.55572 11.1664 6.4632 11.1435 6.37628C11.1206 6.28935 11.0527 6.22147 10.9658 6.19857C10.8789 6.17567 10.7863 6.2013 10.7236 6.26566L7.72964 9.2596C7.63431 9.35738 7.6353 9.51363 7.73186 9.61019C7.82843 9.70675 7.98468 9.70774 8.08245 9.61241Z" fill="white"/>
</svg>
